<?xml version="1.0" encoding="UTF-8" standalone="no"?>
<!-- Generator: Adobe Illustrator 15.1.0, SVG Export Plug-In . SVG Version: 6.00 Build 0)  -->

<svg
   xmlns:dc="http://purl.org/dc/elements/1.1/"
   xmlns:cc="http://creativecommons.org/ns#"
   xmlns:rdf="http://www.w3.org/1999/02/22-rdf-syntax-ns#"
   xmlns:svg="http://www.w3.org/2000/svg"
   xmlns="http://www.w3.org/2000/svg"
   xmlns:sodipodi="http://sodipodi.sourceforge.net/DTD/sodipodi-0.dtd"
   xmlns:inkscape="http://www.inkscape.org/namespaces/inkscape"
   version="1.1"
   x="0px"
   y="0px"
   width="24px"
   height="24px"
   viewBox="0 0 24 24"
   style="enable-background:new 0 0 24 24;"
   xml:space="preserve"
   id="svg904"
   sodipodi:docname="update-flex.svg"
   inkscape:version="0.92.5 (2060ec1f9f, 2020-04-08)"><metadata
   id="metadata910"><rdf:RDF><cc:Work
       rdf:about=""><dc:format>image/svg+xml</dc:format><dc:type
         rdf:resource="http://purl.org/dc/dcmitype/StillImage" /></cc:Work></rdf:RDF></metadata><defs
   id="defs908" /><sodipodi:namedview
   pagecolor="#ffffff"
   bordercolor="#666666"
   borderopacity="1"
   objecttolerance="10"
   gridtolerance="10"
   guidetolerance="10"
   inkscape:pageopacity="0"
   inkscape:pageshadow="2"
   inkscape:window-width="1600"
   inkscape:window-height="824"
   id="namedview906"
   showgrid="false"
   inkscape:zoom="19.666667"
   inkscape:cx="5.0129703"
   inkscape:cy="9.6579481"
   inkscape:window-x="0"
   inkscape:window-y="0"
   inkscape:window-maximized="1"
   inkscape:current-layer="svg904" />
<path
   style="fill:#e0e0e0;fill-opacity:0.87843137;stroke:#e0e0e0;stroke-width:8.63393116;stroke-linejoin:round;stroke-miterlimit:4;stroke-dasharray:none;stroke-opacity:0.87843137;paint-order:stroke markers fill"
   d="M 12,4.3169652 A 7.6827355,7.6827335 0 0 0 4.3169652,12 7.6827355,7.6827335 0 0 0 12,19.683034 7.6827355,7.6827335 0 0 0 19.683034,12 7.6827355,7.6827335 0 0 0 12,4.3169652 Z"
   id="path1455"
   inkscape:connector-curvature="0" /><g
   id="Icons"
   style="opacity:0.75;">
	<g
   id="history">
		<path
   id="clock_hands"
   style="fill-rule:evenodd;clip-rule:evenodd;"
   d="M17.26,15.076c0,0-2.385-1.935-4.005-3.062    c0.72-2.397,1.702-6.559,1.702-6.559s-4.35,5.363-4.877,6.699c-0.463,1.168,1.459,2.209,2.346,1.678    C14.326,14.383,17.26,15.076,17.26,15.076z" />
		<path
   id="arrow"
   style="fill-rule:evenodd;clip-rule:evenodd;"
   d="M12.086,2.085c-5.478,0-9.916,4.438-9.916,9.916    c0,1.783,0.476,3.454,1.301,4.898l-2.223,2.04h5.688v-5.219l-2.066,1.896c-0.55-1.088-0.866-2.312-0.866-3.615    c0-4.465,3.619-8.084,8.084-8.084c4.464,0,8.083,3.619,8.083,8.084c0,4.464-3.619,8.083-8.083,8.083    c-1.145,0-2.228-0.247-3.213-0.678l-0.833,1.634c1.235,0.557,2.602,0.874,4.045,0.874c5.476,0,9.914-4.438,9.914-9.914    C22,6.523,17.562,2.085,12.086,2.085z" />
	</g>
</g>
<g
   id="Guides"
   style="display:none;">
</g>
</svg>